<svg width="55" height="42" viewBox="0 0 55 42" fill="none" xmlns="http://www.w3.org/2000/svg">
<path d="M13.165 41.4349C20.605 41.4349 24.945 35.8549 24.945 29.3449C24.945 22.3699 19.985 19.2699 15.025 17.8749C13.01 17.2549 11.46 16.7899 11.46 14.3099C11.46 9.19492 18.435 6.09493 22.465 5.62992L21.845 0.669922C8.51501 2.52993 0.920013 13.6899 0.920013 26.3999C0.920013 37.7149 7.12001 41.4349 13.165 41.4349ZM43.08 41.4349C50.52 41.4349 54.86 35.8549 54.86 29.3449C54.86 22.2149 49.9 19.1149 44.94 17.7199C42.925 17.0999 41.375 16.6349 41.375 14.1549C41.375 9.03993 48.35 6.09493 52.38 5.47492L51.76 0.669922C38.43 2.52993 30.835 13.6899 30.835 26.2449C30.835 37.7149 37.035 41.4349 43.08 41.4349Z" fill="#FD665E"/>
</svg>
