<svg width="40" height="48" viewBox="0 0 40 48" fill="none" xmlns="http://www.w3.org/2000/svg">
	<path d="M2 2H38V46H2V2Z" stroke="black" stroke-width="4"/>
	<path
		d="M26.8504 40V38.7661C29.9822 38.5017 31.7179 36.9153 31.7179 34.3301C31.7179 32.1267 30.4539 30.7656 27.973 30.2661L26.8504 30.0507V27.0052C27.6617 27.1423 28.256 27.818 28.2843 28.5916H31.4538C31.4255 26.2609 29.6521 24.6158 26.8504 24.3416V23H25.4921V24.3318C22.4452 24.5668 20.6906 26.1532 20.6906 28.6895C20.6906 30.8341 21.9546 32.2442 24.3695 32.7926L25.4921 33.0472V36.2005C24.4827 36.0927 23.7564 35.4171 23.7092 34.5553H20.4359C20.4453 37.0622 22.3037 38.6192 25.4921 38.7857V40H26.8504ZM28.4918 34.7316C28.4918 35.5639 27.8787 36.1221 26.8504 36.2005V33.2823C27.9541 33.4977 28.4918 33.9775 28.4918 34.7316ZM24.0016 28.3566C24.0016 27.6025 24.6148 27.0444 25.4921 26.9856V29.7667C24.5205 29.5611 24.0016 29.0714 24.0016 28.3566Z"
		fill="#FD665E"/>
</svg>
