<svg width="287" height="98" viewBox="0 0 287 98" fill="none" xmlns="http://www.w3.org/2000/svg">
<g id="Group">
<path id="Rectangle" fill-rule="evenodd" clip-rule="evenodd" d="M287 0H0V98H287V0ZM5 93V5H282V93H5Z" fill="black"/>
<path id="MINIMUM" fill-rule="evenodd" clip-rule="evenodd" d="M32 69.72V27H37.88L45.74 49.62H45.86L53.66 27H59.6V69.72H53.48V43.74H53.36L47.3 62.1H44.24L38.24 43.74H38.12V69.72H32ZM73.94 69.72V27H80.06V69.72H73.94ZM94.16 69.72V27H100.04L109.28 52.74H109.4V27H115.52V69.72H109.76L100.4 44.04H100.28V69.72H94.16ZM129.62 69.72V27H135.74V69.72H129.62ZM150.08 69.72V27H155.96L163.82 49.62H163.94L171.74 27H177.68V69.72H171.56V43.74H171.44L165.38 62.1H162.32L156.32 43.74H156.2V69.72H150.08ZM211.64 27V60.12C211.64 61.52 211.39 62.81 210.89 63.99C210.39 65.17 209.68 66.22 208.76 67.14C207.84 68.06 206.78 68.78 205.58 69.3C204.38 69.82 203.1 70.08 201.74 70.08C200.38 70.08 199.11 69.82 197.93 69.3C196.75 68.78 195.7 68.06 194.78 67.14C193.86 66.22 193.14 65.17 192.62 63.99C192.1 62.81 191.84 61.52 191.84 60.12V27H197.96V59.52C197.96 61.04 198.32 62.16 199.04 62.88C199.76 63.6 200.66 63.96 201.74 63.96C202.82 63.96 203.72 63.6 204.44 62.88C205.16 62.16 205.52 61.04 205.52 59.52V27H211.64ZM225.8 69.72V27H231.68L239.54 49.62H239.66L247.46 27H253.4V69.72H247.28V43.74H247.16L241.1 62.1H238.04L232.04 43.74H231.92V69.72H225.8Z" fill="black"/>
</g>
</svg>
