<svg width="144" height="143" viewBox="0 0 144 143" fill="none" xmlns="http://www.w3.org/2000/svg">
<g id="Group 2">
<path id="Combined Shape" fill-rule="evenodd" clip-rule="evenodd" d="M70 0L105 25.6667V36.5256H81.338H79.3662H65.5634V3.25352L70 0ZM59.6479 36.5256V7.59155L35 25.6667V52.3205H59.6479V38.5V36.5256ZM59.6479 57.2564H35V77H76.4085V57.2564H60.6338H59.6479ZM81.338 57.2564V77H105V41.4615H81.338V55.2821V57.2564Z" fill="black"/>
<path id="HAUS" fill-rule="evenodd" clip-rule="evenodd" d="M0 103.958H8.2992V118.002H24.4188V103.958H32.718V141.623H24.4188V125.344H8.2992V141.623H0V103.958ZM52.7744 103.958H59.6372L76.0228 141.623H66.6596L63.4144 133.643H48.7844L45.6456 141.623H36.4952L52.7744 103.958ZM55.9664 114.917L51.3912 126.621H60.5948L55.9664 114.917ZM111.56 127.1C111.56 129.334 111.223 131.391 110.55 133.271C109.876 135.151 108.874 136.782 107.544 138.165C106.214 139.548 104.556 140.63 102.57 141.41C100.583 142.191 98.2959 142.581 95.7068 142.581C93.0823 142.581 90.7769 142.191 88.7908 141.41C86.8047 140.63 85.1466 139.548 83.8166 138.165C82.4866 136.782 81.4847 135.151 80.8108 133.271C80.1369 131.391 79.8 129.334 79.8 127.1V103.958H88.0992V126.78C88.0992 127.951 88.2854 129.033 88.6578 130.026C89.0302 131.019 89.5533 131.879 90.2272 132.606C90.9011 133.333 91.7079 133.9 92.6478 134.308C93.5877 134.716 94.6073 134.92 95.7068 134.92C96.8063 134.92 97.8171 134.716 98.7392 134.308C99.6613 133.9 100.459 133.333 101.133 132.606C101.807 131.879 102.33 131.019 102.703 130.026C103.075 129.033 103.261 127.951 103.261 126.78V103.958H111.56V127.1ZM137.841 113.161C137.167 112.31 136.254 111.68 135.101 111.273C133.949 110.865 132.858 110.661 131.83 110.661C131.227 110.661 130.606 110.732 129.968 110.874C129.329 111.015 128.726 111.237 128.159 111.539C127.591 111.84 127.13 112.239 126.776 112.736C126.421 113.232 126.244 113.835 126.244 114.544C126.244 115.679 126.669 116.548 127.52 117.151C128.372 117.754 129.444 118.268 130.739 118.694C132.034 119.12 133.426 119.545 134.915 119.971C136.405 120.396 137.797 120.999 139.091 121.78C140.386 122.56 141.459 123.606 142.31 124.918C143.161 126.231 143.587 127.986 143.587 130.185C143.587 132.278 143.197 134.104 142.416 135.665C141.636 137.225 140.581 138.52 139.251 139.548C137.921 140.577 136.378 141.339 134.623 141.836C132.867 142.333 131.014 142.581 129.063 142.581C126.616 142.581 124.346 142.208 122.254 141.464C120.161 140.719 118.21 139.513 116.402 137.846L122.307 131.356C123.158 132.491 124.231 133.368 125.525 133.989C126.82 134.61 128.159 134.92 129.542 134.92C130.216 134.92 130.899 134.84 131.59 134.681C132.282 134.521 132.902 134.282 133.452 133.962C134.002 133.643 134.445 133.235 134.782 132.739C135.119 132.242 135.288 131.657 135.288 130.983C135.288 129.848 134.853 128.953 133.984 128.297C133.115 127.64 132.025 127.082 130.712 126.621C129.4 126.16 127.981 125.699 126.456 125.238C124.931 124.777 123.513 124.156 122.2 123.376C120.888 122.595 119.798 121.567 118.929 120.29C118.06 119.013 117.625 117.329 117.625 115.236C117.625 113.214 118.024 111.441 118.822 109.916C119.62 108.391 120.684 107.114 122.014 106.086C123.344 105.057 124.878 104.286 126.616 103.771C128.354 103.257 130.145 103 131.989 103C134.117 103 136.174 103.301 138.16 103.904C140.147 104.507 141.938 105.518 143.534 106.937L137.841 113.161Z" fill="black"/>
</g>
</svg>
