<svg width="199" height="95" viewBox="0 0 199 95" fill="none" xmlns="http://www.w3.org/2000/svg">
<path id="Craft Copy" fill-rule="evenodd" clip-rule="evenodd" d="M32.0936 6.91679C31.2515 6.91679 30.269 7.08932 29.1462 7.43437C28.0234 7.77943 26.8772 8.43032 25.7076 9.38707C24.538 10.3438 23.3918 11.6848 22.269 13.4101C21.1462 15.1354 20.1404 17.3704 19.2515 20.1152C18.3626 22.8599 17.6452 26.1928 17.0994 30.1139C16.5536 34.035 16.2807 38.6619 16.2807 43.9945C16.2807 49.0763 16.5536 53.4836 17.0994 57.2164C17.6452 60.9493 18.3782 64.1254 19.2982 66.7447C20.2183 69.364 21.2709 71.5049 22.4561 73.1674C23.6413 74.83 24.8889 76.1239 26.1988 77.0493C27.5088 77.9747 28.8187 78.6099 30.1287 78.9549C31.4386 79.3 32.6706 79.4725 33.8246 79.4725C35.0409 79.4725 36.2729 79.3157 37.5205 79.002C38.768 78.6883 39.9922 78.2335 41.193 77.6374C42.3938 77.0414 43.5478 76.32 44.655 75.473C45.7622 74.6261 46.7836 73.6536 47.7193 72.5557L49.8246 74.6731C48.8889 75.8338 47.7661 77.0179 46.4561 78.2256C45.1462 79.4333 43.6257 80.5312 41.8947 81.5193C40.1637 82.5074 38.2222 83.3152 36.0702 83.9425C33.9181 84.5699 31.5322 84.8836 28.9123 84.8836C24.8265 84.8836 21.0293 84.0994 17.5205 82.531C14.0117 80.9625 10.9552 78.5236 8.35088 75.2142C5.74658 71.9048 3.70371 67.6622 2.22222 62.4864C0.740733 57.3105 0 51.1153 0 43.9004C0 37.1248 0.779719 31.1805 2.33918 26.0674C3.89864 20.9542 6.01948 16.6803 8.70175 13.2454C11.384 9.81053 14.5341 7.22264 18.152 5.48167C21.77 3.7407 25.6218 2.87023 29.7076 2.87023C32.4211 2.87023 34.8928 3.12902 37.1228 3.64661C39.3528 4.16419 41.2787 4.91703 42.9006 5.90515C44.5224 6.89327 45.7778 8.11663 46.6667 9.57528C47.5556 11.0339 48 12.6886 48 14.5394C48 15.3863 47.8597 16.2725 47.5789 17.1979C47.2982 18.1233 46.8694 18.9702 46.2924 19.7387C45.7154 20.5073 45.0059 21.1346 44.1637 21.6209C43.3216 22.1071 42.3392 22.3502 41.2164 22.3502C40.2183 22.3502 39.4464 22.1306 38.9006 21.6914C38.3548 21.2523 37.9493 20.672 37.6842 19.9505C37.4191 19.229 37.2476 18.4056 37.1696 17.4802C37.0916 16.5548 37.037 15.6059 37.0058 14.6335C36.9747 13.661 36.9045 12.7122 36.7953 11.7868C36.6862 10.8614 36.4678 10.038 36.1404 9.31649C35.8129 8.59501 35.3372 8.0147 34.7135 7.57553C34.0897 7.13637 33.2164 6.91679 32.0936 6.91679ZM69.1462 34.3016C70.3314 32.4822 71.5945 30.8354 72.9357 29.3611C73.4971 28.7337 74.1053 28.122 74.7602 27.526C75.4152 26.93 76.0936 26.3967 76.7953 25.9262C77.4971 25.4557 78.2222 25.0792 78.9708 24.7969C79.7193 24.5146 80.4678 24.3735 81.2164 24.3735C82.807 24.3735 84.0546 24.8518 84.9591 25.8086C85.8635 26.7653 86.3158 28.1063 86.3158 29.8316C86.3158 30.8981 86.23 31.9255 86.0585 32.9136C85.8869 33.9017 85.5517 35.1015 85.0526 36.5131H83.7427C83.5556 35.5407 83.1189 34.733 82.4327 34.0899C81.7466 33.4468 80.7485 33.1253 79.4386 33.1253C78.4717 33.1253 77.5205 33.3057 76.5848 33.6664C75.6491 34.0272 74.7368 34.4742 73.848 35.0074C72.9591 35.5407 72.117 36.121 71.3216 36.7484C70.5263 37.3758 69.8012 37.9718 69.1462 38.5364V69.0738C69.1462 69.4816 69.0838 69.9678 68.9591 70.5324C68.8343 71.0971 68.5302 71.6303 68.0468 72.1322C67.5633 72.6341 66.846 73.0655 65.8947 73.4262C64.9435 73.7869 63.6413 73.9673 61.9883 73.9673C60.3353 73.9673 59.0331 73.7713 58.0819 73.3791C57.1306 72.987 56.4055 72.5244 55.9064 71.9911C55.4074 71.4578 55.0955 70.9089 54.9708 70.3442C54.846 69.7796 54.7836 69.3247 54.7836 68.9797V32.6548C54.7836 31.7451 54.5731 30.953 54.152 30.2786C53.731 29.6042 53.0214 29.267 52.0234 29.267C51.4932 29.267 51.0409 29.3611 50.6667 29.5493C50.2924 29.7375 49.8869 30.0041 49.4503 30.3492L48.4678 29.1729C49.1852 28.5769 49.9883 27.9887 50.8772 27.4084C51.7661 26.828 52.7251 26.3183 53.7544 25.8791C54.7836 25.44 55.8908 25.0792 57.076 24.7969C58.2612 24.5146 59.5088 24.3735 60.8187 24.3735C62.1598 24.3735 63.306 24.5538 64.2573 24.9146C65.2086 25.2753 65.9883 25.7458 66.5965 26.3262C67.2047 26.9065 67.6803 27.5574 68.0234 28.2789C68.3665 29.0003 68.6238 29.7296 68.7953 30.4668C68.9669 31.204 69.0682 31.9098 69.0994 32.5842C69.1306 33.2586 69.1462 33.8311 69.1462 34.3016ZM112.374 48.841C112.374 48.0568 112.125 47.4608 111.626 47.053C111.127 46.6452 110.487 46.4413 109.708 46.4413C108.616 46.4413 107.579 46.6923 106.596 47.1942C105.614 47.6961 104.749 48.4332 104 49.4056C103.251 50.3781 102.659 51.5779 102.222 53.0052C101.786 54.4325 101.567 56.0872 101.567 57.9693C101.567 59.7887 101.7 61.2944 101.965 62.4864C102.23 63.6784 102.589 64.6273 103.041 65.3331C103.493 66.0389 104.016 66.5329 104.608 66.8153C105.201 67.0976 105.825 67.2387 106.48 67.2387C107.29 67.2387 108.055 67.027 108.772 66.6035C109.489 66.18 110.113 65.6389 110.643 64.9802C111.173 64.3214 111.595 63.5843 111.906 62.7687C112.218 61.9531 112.374 61.1375 112.374 60.3219V48.841ZM104.936 28.2318C103.875 28.2318 102.893 28.3573 101.988 28.6082C101.084 28.8592 100.304 29.1729 99.6491 29.5493C98.9941 29.9257 98.4795 30.3413 98.1053 30.7962C97.731 31.251 97.5439 31.6823 97.5439 32.0901C97.5439 32.5607 97.7856 32.8979 98.269 33.1018C98.7524 33.3057 99.2904 33.5409 99.883 33.8076C100.476 34.0742 101.014 34.4506 101.497 34.9369C101.981 35.4231 102.222 36.1681 102.222 37.1719C102.222 37.8306 102.09 38.4345 101.825 38.9834C101.559 39.5324 101.201 40.0186 100.749 40.4421C100.296 40.8655 99.7661 41.1949 99.1579 41.4302C98.5497 41.6654 97.9181 41.7831 97.2632 41.7831C95.5166 41.7831 94.1053 41.1871 93.0292 39.995C91.9532 38.803 91.4152 37.2189 91.4152 35.2427C91.4152 33.3292 91.9142 31.6902 92.9123 30.3257C93.9103 28.9611 95.2125 27.8397 96.8187 26.9614C98.425 26.083 100.242 25.4321 102.269 25.0087C104.296 24.5852 106.324 24.3735 108.351 24.3735C110.784 24.3735 113.107 24.6401 115.322 25.1734C117.536 25.7066 119.493 26.5536 121.193 27.7142C122.893 28.8749 124.25 30.3492 125.263 32.1372C126.277 33.9252 126.784 36.0896 126.784 38.6305V65.2155C126.784 65.4978 126.799 65.8115 126.83 66.1565C126.862 66.5016 126.94 66.8153 127.064 67.0976C127.189 67.3799 127.376 67.6152 127.626 67.8034C127.875 67.9916 128.234 68.0857 128.702 68.0857C129.263 68.0857 129.786 67.874 130.269 67.4505C130.752 67.027 131.181 66.5957 131.556 66.1565L132.725 67.1446C132.257 67.8034 131.696 68.5248 131.041 69.3091C130.386 70.0933 129.591 70.8304 128.655 71.5206C127.719 72.2107 126.628 72.791 125.38 73.2615C124.133 73.732 122.713 73.9673 121.123 73.9673C119.158 73.9673 117.411 73.3792 115.883 72.2028C114.355 71.0265 113.357 69.215 112.889 66.7682C111.891 68.1171 110.854 69.2463 109.778 70.156C108.702 71.0657 107.602 71.8029 106.48 72.3675C105.357 72.9321 104.226 73.3399 103.088 73.5909C101.949 73.8418 100.803 73.9673 99.6491 73.9673C98.152 73.9673 96.7018 73.732 95.2982 73.2615C93.8947 72.791 92.6394 72.046 91.5322 71.0265C90.4249 70.007 89.5361 68.6817 88.8655 67.0505C88.1949 65.4193 87.8596 63.4275 87.8596 61.0748C87.8596 58.2202 88.421 55.8833 89.5439 54.0639C90.6667 52.2445 92.1403 50.7153 93.9649 49.4762C95.7895 48.2372 97.8635 47.1785 100.187 46.3001C102.511 45.4218 104.889 44.4965 107.322 43.524C109.131 42.8025 110.448 41.7282 111.275 40.3009C112.101 38.8736 112.515 37.4071 112.515 35.9014C112.515 33.5801 111.836 31.7216 110.48 30.3257C109.123 28.9297 107.275 28.2318 104.936 28.2318ZM159.626 3.81129C160.405 3.43487 161.232 3.24666 162.105 3.24666C163.135 3.24666 164.023 3.43487 164.772 3.81129C165.52 4.18772 166.168 4.65824 166.713 5.22288C167.259 5.78752 167.719 6.3992 168.094 7.05795C168.468 7.71669 168.811 8.32838 169.123 8.89302C169.435 9.45766 169.731 9.92818 170.012 10.3046C170.292 10.681 170.604 10.8692 170.947 10.8692C171.509 10.8692 172.016 10.7202 172.468 10.4222C172.92 10.1242 173.302 9.73213 173.614 9.24591C173.926 8.7597 174.168 8.22643 174.339 7.64611C174.511 7.06579 174.596 6.49332 174.596 5.92868C174.596 5.17583 174.3 4.43867 173.708 3.71719C173.115 2.9957 172.242 2.36049 171.088 1.81154C169.934 1.26259 168.499 0.823429 166.784 0.494056C165.068 0.164684 163.103 0 160.889 0C159.86 0 158.659 0.094105 157.287 0.282318C155.914 0.470531 154.503 0.831267 153.053 1.36454C151.602 1.89781 150.175 2.61928 148.772 3.52897C147.368 4.43867 146.113 5.61498 145.006 7.05795C143.899 8.50092 143.01 10.2497 142.339 12.3044C141.669 14.359 141.333 16.7665 141.333 19.527V25.0322H132.725V28.42H141.333V67.8975C141.333 69.811 141.263 71.7244 141.123 73.6379C140.982 75.5514 140.741 77.3865 140.398 79.1431C140.055 80.8998 139.587 82.5466 138.994 84.0837C138.402 85.6208 137.669 86.9539 136.795 88.0832C135.922 89.2125 134.877 90.0986 133.661 90.7417C132.444 91.3848 131.041 91.7063 129.45 91.7063C128.265 91.7063 127.259 91.5338 126.433 91.1887C125.606 90.8437 124.912 90.4202 124.351 89.9183C123.789 89.4164 123.329 88.8596 122.971 88.2479C122.612 87.6362 122.292 87.0794 122.012 86.5775C121.731 86.0756 121.458 85.6521 121.193 85.3071C120.928 84.962 120.624 84.7895 120.281 84.7895C119.688 84.7895 119.166 84.9385 118.713 85.2365C118.261 85.5345 117.879 85.9188 117.567 86.3893C117.255 86.8598 117.021 87.3853 116.865 87.9656C116.71 88.5459 116.632 89.1184 116.632 89.683C116.632 90.4672 116.967 91.1809 117.637 91.8239C118.308 92.467 119.205 93.0238 120.327 93.4943C121.45 93.9648 122.745 94.3334 124.211 94.6001C125.676 94.8667 127.205 95 128.795 95C133.287 95 137.216 94.2628 140.585 92.7885C143.953 91.3142 146.76 89.2674 149.006 86.6481C151.251 84.0288 152.928 80.9155 154.035 77.3081C155.142 73.7007 155.696 69.7639 155.696 65.4978V28.42H164.614H165.942H169.854V63.2863C169.854 65.137 170.15 66.7211 170.743 68.0386C171.335 69.3561 172.123 70.454 173.105 71.3323C174.088 72.2107 175.211 72.8537 176.474 73.2615C177.737 73.6693 179.055 73.8732 180.427 73.8732C182.86 73.8732 184.879 73.5282 186.485 72.838C188.092 72.1479 189.425 71.2931 190.485 70.2737C191.546 69.2542 192.396 68.1484 193.035 66.9564C193.674 65.7644 194.228 64.6665 194.696 63.6627L193.246 63.004C192.84 63.8823 192.357 64.6508 191.795 65.3096C191.327 65.9056 190.766 66.4388 190.111 66.9094C189.456 67.3799 188.708 67.6152 187.865 67.6152C186.774 67.6152 185.916 67.2936 185.292 66.6506C184.669 66.0075 184.357 64.8547 184.357 63.1922V28.42H191.608C194.197 28.42 196.076 27.8162 197.246 26.6085C198.415 25.4008 199 23.7775 199 21.7385C199 21.2366 198.93 20.7347 198.789 20.2328C198.649 19.7309 198.439 19.2839 198.158 18.8918C197.877 18.4997 197.526 18.186 197.105 17.9507C196.684 17.7155 196.193 17.5978 195.632 17.5978C194.758 17.5978 194.049 17.8488 193.503 18.3507C192.957 18.8526 192.684 19.5427 192.684 20.421C192.684 21.1425 192.84 21.6601 193.152 21.9737C193.464 22.2874 193.815 22.5305 194.205 22.7031C194.595 22.8756 194.945 23.0168 195.257 23.1265C195.569 23.2363 195.725 23.4481 195.725 23.7618C195.725 24.6087 194.478 25.0322 191.982 25.0322H184.357V11.1516H180.614C180.021 13.7865 179.023 15.998 177.62 17.786C176.216 19.5741 174.696 21.0013 173.058 22.0679C171.421 23.1344 169.823 23.8951 168.263 24.3499C166.704 24.8048 165.487 25.0322 164.614 25.0322H155.696V13.4572C155.696 11.6378 155.867 10.085 156.211 8.79891C156.554 7.51279 157.014 6.45411 157.591 5.62283C158.168 4.79156 158.846 4.18772 159.626 3.81129Z" fill="black"/>
</svg>
