<svg width="298" height="83" viewBox="0 0 298 83" fill="none" xmlns="http://www.w3.org/2000/svg">
<g id="Group 2">
<g id="Rectangle">
<mask id="path-1-inside-1" fill="white">
<rect width="69" height="69" rx="3.2"/>
</mask>
<rect width="69" height="69" rx="3.2" stroke="black" stroke-width="10.4" mask="url(#path-1-inside-1)"/>
</g>
<g id="Rectangle Copy 12">
<mask id="path-2-inside-2" fill="white">
<path d="M15 17.2C15 15.4327 16.4327 14 18.2 14H44C66.0914 14 84 31.9086 84 54V79.8C84 81.5673 82.5673 83 80.8 83H55C32.9086 83 15 65.0914 15 43V17.2Z"/>
</mask>
<path d="M15 17.2C15 15.4327 16.4327 14 18.2 14H44C66.0914 14 84 31.9086 84 54V79.8C84 81.5673 82.5673 83 80.8 83H55C32.9086 83 15 65.0914 15 43V17.2Z" stroke="black" stroke-width="10.4" mask="url(#path-2-inside-2)"/>
</g>
<path id="placeit" fill-rule="evenodd" clip-rule="evenodd" d="M111.868 76.008C111.233 76.008 110.621 75.9173 110.032 75.736V31.128C110.032 29.8586 110.361 28.85 111.018 28.102C111.675 27.354 112.593 26.98 113.772 26.98C114.316 26.98 114.928 27.0707 115.608 27.252V32.556C116.923 30.5613 118.441 29.054 120.164 28.034C121.887 27.014 123.904 26.504 126.216 26.504C128.981 26.504 131.407 27.218 133.492 28.646C135.577 30.074 137.175 32.114 138.286 34.766C139.397 37.418 139.952 40.512 139.952 44.048C139.952 47.8107 139.329 51.1086 138.082 53.942C136.835 56.7753 135.056 58.9626 132.744 60.504C130.432 62.0453 127.735 62.816 124.652 62.816C122.703 62.816 121.014 62.51 119.586 61.898C118.158 61.286 116.832 60.436 115.608 59.348V71.86C115.608 73.1293 115.279 74.138 114.622 74.886C113.965 75.634 113.047 76.008 111.868 76.008ZM124.04 58.328C127.259 58.328 129.763 57.07 131.554 54.554C133.345 52.038 134.24 48.4907 134.24 43.912C134.24 39.7413 133.492 36.5453 131.996 34.324C130.5 32.1026 128.347 30.992 125.536 30.992C122.544 30.992 120.119 32.216 118.26 34.664C116.401 37.112 115.472 40.444 115.472 44.66V48.196C115.472 51.3693 116.209 53.8513 117.682 55.642C119.155 57.4327 121.275 58.328 124.04 58.328ZM149.472 62.408C148.792 62.408 148.157 62.3173 147.568 62.136V16.78C147.568 15.5106 147.885 14.502 148.52 13.754C149.155 13.006 150.061 12.632 151.24 12.632C151.92 12.632 152.555 12.7227 153.144 12.904V58.26C153.144 59.5293 152.827 60.538 152.192 61.286C151.557 62.034 150.651 62.408 149.472 62.408ZM173.34 62.816C169.623 62.816 166.71 61.8527 164.602 59.926C162.494 57.9993 161.44 55.404 161.44 52.14C161.44 48.6946 162.619 45.9293 164.976 43.844C167.333 41.7586 170.575 40.716 174.7 40.716C176.513 40.716 178.021 40.8973 179.222 41.26C180.423 41.6227 181.568 42.144 182.656 42.824V39.56C182.656 36.84 181.931 34.7433 180.48 33.27C179.029 31.7966 176.921 31.06 174.156 31.06C172.071 31.06 170.246 31.4793 168.682 32.318C167.118 33.1567 165.724 34.4146 164.5 36.092C163.004 35.548 162.256 34.5053 162.256 32.964C162.256 30.9693 163.469 29.4053 165.894 28.272C168.319 27.1386 171.164 26.572 174.428 26.572C178.916 26.572 182.316 27.7166 184.628 30.006C186.94 32.2953 188.096 35.48 188.096 39.56V58.26C188.096 59.5293 187.767 60.538 187.11 61.286C186.453 62.034 185.535 62.408 184.356 62.408C183.812 62.408 183.2 62.3173 182.52 62.136V58.6C181.523 60.0507 180.299 61.116 178.848 61.796C177.397 62.476 175.561 62.816 173.34 62.816ZM174.224 58.464C176.808 58.464 178.859 57.852 180.378 56.628C181.897 55.404 182.656 53.7493 182.656 51.664V49.964C182.656 48.3773 182.044 47.142 180.82 46.258C179.596 45.374 177.805 44.932 175.448 44.932C172.728 44.932 170.643 45.544 169.192 46.768C167.741 47.992 167.016 49.76 167.016 52.072C167.016 54.1573 167.628 55.744 168.852 56.832C170.076 57.92 171.867 58.464 174.224 58.464ZM210.468 62.816C207.249 62.816 204.439 62.0793 202.036 60.606C199.633 59.1326 197.797 57.0247 196.528 54.282C195.259 51.5393 194.624 48.332 194.624 44.66C194.624 40.988 195.259 37.7807 196.528 35.038C197.797 32.2953 199.633 30.1873 202.036 28.714C204.439 27.2406 207.249 26.504 210.468 26.504C212.689 26.504 214.763 26.8327 216.69 27.49C218.617 28.1473 220.169 29.0426 221.348 30.176C222.527 31.3093 223.116 32.556 223.116 33.916C223.116 35.412 222.413 36.3867 221.008 36.84C219.875 35.1173 218.39 33.78 216.554 32.828C214.718 31.876 212.689 31.4 210.468 31.4C207.023 31.4 204.473 32.556 202.818 34.868C201.163 37.18 200.336 40.444 200.336 44.66C200.336 48.876 201.163 52.14 202.818 54.452C204.473 56.764 207.023 57.92 210.468 57.92C212.689 57.92 214.718 57.444 216.554 56.492C218.39 55.54 219.875 54.2027 221.008 52.48C222.413 52.9333 223.116 53.908 223.116 55.404C223.116 56.764 222.527 58.0106 221.348 59.144C220.169 60.2773 218.617 61.1727 216.69 61.83C214.763 62.4873 212.689 62.816 210.468 62.816ZM243.856 62.816C240.728 62.816 237.963 62.0907 235.56 60.64C233.157 59.1893 231.299 57.104 229.984 54.384C228.669 51.664 228.012 48.4907 228.012 44.864C228.012 41.192 228.681 37.9733 230.018 35.208C231.355 32.4426 233.214 30.3007 235.594 28.782C237.974 27.2633 240.728 26.504 243.856 26.504C248.299 26.504 251.778 28.0113 254.294 31.026C256.81 34.0407 258.068 38.132 258.068 43.3C258.068 44.5693 257.898 45.4307 257.558 45.884C257.218 46.3373 256.527 46.564 255.484 46.564H233.588C233.588 50.1453 234.506 53.0013 236.342 55.132C238.178 57.2627 240.637 58.328 243.72 58.328C245.987 58.328 248.038 57.8293 249.874 56.832C251.71 55.8346 253.172 54.52 254.26 52.888C255.62 53.3867 256.3 54.4066 256.3 55.948C256.3 57.172 255.688 58.3053 254.464 59.348C253.24 60.3907 251.665 61.2293 249.738 61.864C247.811 62.4987 245.851 62.816 243.856 62.816ZM252.492 42.008C252.401 38.336 251.676 35.5593 250.316 33.678C248.956 31.7966 246.893 30.856 244.128 30.856C241.227 30.856 238.892 31.8533 237.124 33.848C235.356 35.8427 234.223 38.744 233.724 42.552L252.492 42.008ZM268.336 22.016C267.157 22.016 266.171 21.6193 265.378 20.826C264.585 20.0327 264.188 19.0467 264.188 17.868C264.188 16.6893 264.585 15.7033 265.378 14.91C266.171 14.1167 267.157 13.72 268.336 13.72C269.515 13.72 270.501 14.1167 271.294 14.91C272.087 15.7033 272.484 16.6893 272.484 17.868C272.484 19.0467 272.087 20.0327 271.294 20.826C270.501 21.6193 269.515 22.016 268.336 22.016ZM267.452 62.408C266.772 62.408 266.137 62.3173 265.548 62.136V31.06C265.548 29.7906 265.865 28.782 266.5 28.034C267.135 27.286 268.041 26.912 269.22 26.912C269.9 26.912 270.535 27.0027 271.124 27.184V58.26C271.124 59.5293 270.807 60.538 270.172 61.286C269.537 62.034 268.631 62.408 267.452 62.408ZM296.352 56.764C296.851 56.9907 297.236 57.308 297.508 57.716C297.78 58.124 297.916 58.6 297.916 59.144C297.916 60.1867 297.395 61.014 296.352 61.626C295.309 62.238 294.017 62.544 292.476 62.544C289.756 62.544 287.603 61.592 286.016 59.688C284.429 57.784 283.636 55.2 283.636 51.936V31.672H278.536C278.309 31.2187 278.196 30.72 278.196 30.176C278.196 29.2693 278.491 28.5667 279.08 28.068C279.669 27.5693 280.44 27.32 281.392 27.32H283.636V22.356C283.636 21.0866 283.953 20.078 284.588 19.33C285.223 18.582 286.129 18.208 287.308 18.208C287.988 18.208 288.623 18.2987 289.212 18.48V27.32H297.032C297.259 27.7733 297.372 28.272 297.372 28.816C297.372 29.7227 297.077 30.4253 296.488 30.924C295.899 31.4227 295.128 31.672 294.176 31.672H289.212V51.936C289.212 53.7493 289.541 55.1206 290.198 56.05C290.855 56.9793 291.887 57.444 293.292 57.444C294.289 57.444 295.309 57.2173 296.352 56.764Z" fill="black"/>
</g>
</svg>
