<svg width="325" height="95" viewBox="0 0 325 95" fill="none" xmlns="http://www.w3.org/2000/svg">
<g id="Group">
<path id="Combined Shape" fill-rule="evenodd" clip-rule="evenodd" d="M30.548 16.8282L16.8282 30.548L33.6564 47.3762L16.8282 64.2043L30.548 77.9241L47.3762 61.096L64.2043 77.9241L77.9241 64.2043L61.0959 47.3762L77.9241 30.548L64.2043 16.8282L47.3762 33.6564L30.548 16.8282Z" fill="black"/>
<path id="Combined Shape Copy" fill-rule="evenodd" clip-rule="evenodd" d="M153.924 30.548L140.204 16.8282L123.376 33.6564L106.548 16.8282L92.8282 30.548L109.656 47.3762L92.8282 64.2043L106.548 77.9241L123.376 61.0959L140.204 77.9241L153.924 64.2043L137.096 47.3762L153.924 30.548Z" fill="black"/>
<path id="Combined Shape Copy 2" fill-rule="evenodd" clip-rule="evenodd" d="M166 36.7986V56.2014H189.799V80H209.201V56.2014L233 56.2014V36.7986L209.201 36.7986V13H189.799V36.7986H166Z" fill="black"/>
<path id="Club Twenty One" fill-rule="evenodd" clip-rule="evenodd" d="M265.064 16.5828C264.608 15.99 264.031 15.534 263.332 15.2148C262.632 14.8956 261.91 14.736 261.166 14.736C260.254 14.736 259.429 14.907 258.692 15.249C257.955 15.591 257.324 16.0584 256.799 16.6512C256.275 17.244 255.868 17.9394 255.58 18.7374C255.291 19.5354 255.146 20.3904 255.146 21.3024C255.146 22.1536 255.283 22.9592 255.557 23.7192C255.83 24.4792 256.226 25.148 256.742 25.7256C257.259 26.3032 257.89 26.7592 258.635 27.0936C259.38 27.428 260.223 27.5952 261.166 27.5952C262.093 27.5952 262.906 27.4052 263.605 27.0252C264.304 26.6452 264.897 26.1132 265.384 25.4292L267.23 26.82C267.109 26.9872 266.896 27.2266 266.592 27.5382C266.288 27.8498 265.885 28.1614 265.384 28.473C264.882 28.7846 264.278 29.0582 263.571 29.2938C262.864 29.5294 262.047 29.6472 261.12 29.6472C259.843 29.6472 258.692 29.404 257.666 28.9176C256.64 28.4312 255.766 27.7928 255.044 27.0024C254.322 26.212 253.771 25.319 253.391 24.3234C253.011 23.3278 252.821 22.3208 252.821 21.3024C252.821 20.056 253.026 18.9046 253.436 17.8482C253.847 16.7918 254.421 15.8798 255.158 15.1122C255.895 14.3446 256.78 13.748 257.814 13.3224C258.848 12.8968 259.988 12.684 261.234 12.684C262.298 12.684 263.343 12.8892 264.369 13.2996C265.395 13.71 266.235 14.3408 266.888 15.192L265.064 16.5828ZM269.51 12H271.562V29.2368H269.51V12ZM284.399 29.2368H282.347V27.5724H282.301C282.043 28.15 281.594 28.6174 280.956 28.9746C280.318 29.3318 279.58 29.5104 278.744 29.5104C278.212 29.5104 277.711 29.4306 277.24 29.271C276.768 29.1114 276.354 28.8644 275.997 28.53C275.64 28.1956 275.355 27.7662 275.142 27.2418C274.929 26.7174 274.823 26.098 274.823 25.3836V18.4296H276.875V24.8136C276.875 25.3152 276.943 25.7446 277.08 26.1018C277.217 26.459 277.399 26.7478 277.627 26.9682C277.855 27.1886 278.117 27.3482 278.414 27.447C278.71 27.5458 279.018 27.5952 279.337 27.5952C279.763 27.5952 280.158 27.5268 280.523 27.39C280.888 27.2532 281.207 27.0366 281.48 26.7402C281.754 26.4438 281.967 26.0676 282.119 25.6116C282.271 25.1556 282.347 24.616 282.347 23.9928V18.4296H284.399V29.2368ZM287.5 12H289.552V19.98H289.597C289.962 19.4176 290.486 18.973 291.17 18.6462C291.854 18.3194 292.584 18.156 293.359 18.156C294.195 18.156 294.951 18.3004 295.628 18.5892C296.304 18.878 296.882 19.277 297.361 19.7862C297.839 20.2954 298.208 20.8958 298.466 21.5874C298.725 22.279 298.854 23.0276 298.854 23.8332C298.854 24.6388 298.725 25.3836 298.466 26.0676C298.208 26.7516 297.839 27.352 297.361 27.8688C296.882 28.3856 296.304 28.7884 295.628 29.0772C294.951 29.366 294.195 29.5104 293.359 29.5104C292.63 29.5104 291.919 29.3508 291.227 29.0316C290.536 28.7124 289.992 28.264 289.597 27.6864H289.552V29.2368H287.5V12ZM293.108 27.5952C293.656 27.5952 294.15 27.5002 294.59 27.3102C295.031 27.1202 295.404 26.8618 295.708 26.535C296.012 26.2082 296.247 25.813 296.414 25.3494C296.582 24.8858 296.665 24.3804 296.665 23.8332C296.665 23.286 296.582 22.7806 296.414 22.317C296.247 21.8534 296.012 21.4582 295.708 21.1314C295.404 20.8046 295.031 20.5462 294.59 20.3562C294.15 20.1662 293.656 20.0712 293.108 20.0712C292.561 20.0712 292.067 20.1662 291.626 20.3562C291.186 20.5462 290.813 20.8046 290.509 21.1314C290.205 21.4582 289.97 21.8534 289.802 22.317C289.635 22.7806 289.552 23.286 289.552 23.8332C289.552 24.3804 289.635 24.8858 289.802 25.3494C289.97 25.813 290.205 26.2082 290.509 26.535C290.813 26.8618 291.186 27.1202 291.626 27.3102C292.067 27.5002 292.561 27.5952 293.108 27.5952ZM257.198 39.7464H252V37.6944H264.586V39.7464H259.387V53.8368H257.198V39.7464ZM262.556 43.0296H264.859L267.299 51.1008H267.344L269.921 43.0296H272.087L274.823 51.1008H274.868L277.194 43.0296H279.36L275.872 53.8368H273.797L270.947 45.7656H270.901L268.325 53.8368H266.113L262.556 43.0296ZM282.712 49.1856C282.712 49.6568 282.814 50.0862 283.019 50.4738C283.225 50.8614 283.494 51.192 283.829 51.4656C284.163 51.7392 284.551 51.952 284.992 52.104C285.432 52.256 285.888 52.332 286.36 52.332C286.998 52.332 287.553 52.1838 288.024 51.8874C288.495 51.591 288.928 51.1996 289.324 50.7132L290.874 51.8988C289.734 53.3732 288.138 54.1104 286.086 54.1104C285.235 54.1104 284.463 53.966 283.772 53.6772C283.08 53.3884 282.495 52.9894 282.016 52.4802C281.537 51.971 281.169 51.3706 280.91 50.679C280.652 49.9874 280.523 49.2388 280.523 48.4332C280.523 47.6276 280.663 46.879 280.945 46.1874C281.226 45.4958 281.613 44.8954 282.107 44.3862C282.601 43.877 283.19 43.478 283.874 43.1892C284.558 42.9004 285.303 42.756 286.109 42.756C287.066 42.756 287.876 42.9232 288.537 43.2576C289.198 43.592 289.742 44.029 290.167 44.5686C290.593 45.1082 290.901 45.7162 291.091 46.3926C291.281 47.069 291.376 47.7568 291.376 48.456V49.1856H282.712ZM289.187 47.544C289.172 47.088 289.099 46.67 288.97 46.29C288.841 45.91 288.647 45.5794 288.389 45.2982C288.13 45.017 287.807 44.7966 287.42 44.637C287.032 44.4774 286.58 44.3976 286.063 44.3976C285.562 44.3976 285.102 44.4926 284.684 44.6826C284.266 44.8726 283.912 45.1196 283.624 45.4236C283.335 45.7276 283.111 46.0658 282.951 46.4382C282.791 46.8106 282.712 47.1792 282.712 47.544H289.187ZM293.838 43.0296H295.89V44.694H295.936C296.194 44.1164 296.642 43.649 297.281 43.2918C297.919 42.9346 298.656 42.756 299.492 42.756C300.009 42.756 300.507 42.8358 300.986 42.9954C301.465 43.155 301.883 43.402 302.24 43.7364C302.597 44.0708 302.882 44.5002 303.095 45.0246C303.308 45.549 303.414 46.1684 303.414 46.8828V53.8368H301.362V47.4528C301.362 46.9512 301.294 46.5218 301.157 46.1646C301.02 45.8074 300.838 45.5186 300.61 45.2982C300.382 45.0778 300.119 44.9182 299.823 44.8194C299.527 44.7206 299.219 44.6712 298.9 44.6712C298.474 44.6712 298.079 44.7396 297.714 44.8764C297.349 45.0132 297.03 45.2298 296.756 45.5262C296.483 45.8226 296.27 46.1988 296.118 46.6548C295.966 47.1108 295.89 47.6504 295.89 48.2736V53.8368H293.838V43.0296ZM312.306 44.808H309.365V49.71C309.365 50.014 309.372 50.3142 309.388 50.6106C309.403 50.907 309.46 51.173 309.559 51.4086C309.657 51.6442 309.809 51.8342 310.015 51.9786C310.22 52.123 310.52 52.1952 310.915 52.1952C311.158 52.1952 311.409 52.1724 311.668 52.1268C311.926 52.0812 312.162 51.9976 312.374 51.876V53.7456C312.131 53.8824 311.816 53.9774 311.428 54.0306C311.041 54.0838 310.74 54.1104 310.528 54.1104C309.737 54.1104 309.125 54.0002 308.692 53.7798C308.259 53.5594 307.94 53.2744 307.735 52.9248C307.529 52.5752 307.408 52.1838 307.37 51.7506C307.332 51.3174 307.313 50.8804 307.313 50.4396V44.808H304.942V43.0296H307.313V39.9972H309.365V43.0296H312.306V44.808ZM313.651 43.0296H316.022L319.237 51.4656H319.283L322.338 43.0296H324.55L319.42 56.1624C319.237 56.6336 319.047 57.063 318.85 57.4506C318.652 57.8382 318.416 58.1688 318.143 58.4424C317.869 58.716 317.539 58.9288 317.151 59.0808C316.763 59.2328 316.288 59.3088 315.726 59.3088C315.422 59.3088 315.114 59.2898 314.803 59.2518C314.491 59.2138 314.191 59.134 313.902 59.0124L314.153 57.1428C314.563 57.31 314.974 57.3936 315.384 57.3936C315.703 57.3936 315.973 57.3518 316.193 57.2682C316.414 57.1846 316.604 57.063 316.763 56.9034C316.923 56.7438 317.056 56.5576 317.162 56.3448C317.269 56.132 317.375 55.8888 317.482 55.6152L318.143 53.9052L313.651 43.0296ZM261.234 78.8472C260.003 78.8472 258.87 78.6306 257.837 78.1974C256.803 77.7642 255.918 77.1676 255.181 76.4076C254.443 75.6476 253.866 74.7508 253.448 73.7172C253.03 72.6836 252.821 71.5664 252.821 70.3656C252.821 69.1648 253.03 68.0476 253.448 67.014C253.866 65.9804 254.443 65.0836 255.181 64.3236C255.918 63.5636 256.803 62.967 257.837 62.5338C258.87 62.1006 260.003 61.884 261.234 61.884C262.465 61.884 263.598 62.1006 264.631 62.5338C265.665 62.967 266.55 63.5636 267.287 64.3236C268.025 65.0836 268.602 65.9804 269.02 67.014C269.438 68.0476 269.647 69.1648 269.647 70.3656C269.647 71.5664 269.438 72.6836 269.02 73.7172C268.602 74.7508 268.025 75.6476 267.287 76.4076C266.55 77.1676 265.665 77.7642 264.631 78.1974C263.598 78.6306 262.465 78.8472 261.234 78.8472ZM261.234 76.7952C262.161 76.7952 262.997 76.6242 263.742 76.2822C264.487 75.9402 265.125 75.4804 265.657 74.9028C266.189 74.3252 266.6 73.645 266.888 72.8622C267.177 72.0794 267.322 71.2472 267.322 70.3656C267.322 69.484 267.177 68.6518 266.888 67.869C266.6 67.0862 266.189 66.406 265.657 65.8284C265.125 65.2508 264.487 64.791 263.742 64.449C262.997 64.107 262.161 63.936 261.234 63.936C260.307 63.936 259.471 64.107 258.726 64.449C257.981 64.791 257.343 65.2508 256.811 65.8284C256.279 66.406 255.868 67.0862 255.58 67.869C255.291 68.6518 255.146 69.484 255.146 70.3656C255.146 71.2472 255.291 72.0794 255.58 72.8622C255.868 73.645 256.279 74.3252 256.811 74.9028C257.343 75.4804 257.981 75.9402 258.726 76.2822C259.471 76.6242 260.307 76.7952 261.234 76.7952ZM272.269 67.6296H274.321V69.294H274.367C274.625 68.7164 275.074 68.249 275.712 67.8918C276.35 67.5346 277.088 67.356 277.924 67.356C278.44 67.356 278.938 67.4358 279.417 67.5954C279.896 67.755 280.314 68.002 280.671 68.3364C281.028 68.6708 281.313 69.1002 281.526 69.6246C281.739 70.149 281.845 70.7684 281.845 71.4828V78.4368H279.793V72.0528C279.793 71.5512 279.725 71.1218 279.588 70.7646C279.451 70.4074 279.269 70.1186 279.041 69.8982C278.813 69.6778 278.551 69.5182 278.254 69.4194C277.958 69.3206 277.65 69.2712 277.331 69.2712C276.905 69.2712 276.51 69.3396 276.145 69.4764C275.78 69.6132 275.461 69.8298 275.188 70.1262C274.914 70.4226 274.701 70.7988 274.549 71.2548C274.397 71.7108 274.321 72.2504 274.321 72.8736V78.4368H272.269V67.6296ZM286.496 73.7856C286.496 74.2568 286.599 74.6862 286.804 75.0738C287.009 75.4614 287.279 75.792 287.614 76.0656C287.948 76.3392 288.336 76.552 288.776 76.704C289.217 76.856 289.673 76.932 290.144 76.932C290.783 76.932 291.338 76.7838 291.809 76.4874C292.28 76.191 292.713 75.7996 293.108 75.3132L294.659 76.4988C293.519 77.9732 291.923 78.7104 289.871 78.7104C289.02 78.7104 288.248 78.566 287.557 78.2772C286.865 77.9884 286.28 77.5894 285.801 77.0802C285.322 76.571 284.954 75.9706 284.695 75.279C284.437 74.5874 284.308 73.8388 284.308 73.0332C284.308 72.2276 284.448 71.479 284.729 70.7874C285.011 70.0958 285.398 69.4954 285.892 68.9862C286.386 68.477 286.975 68.078 287.659 67.7892C288.343 67.5004 289.088 67.356 289.894 67.356C290.851 67.356 291.661 67.5232 292.322 67.8576C292.983 68.192 293.526 68.629 293.952 69.1686C294.378 69.7082 294.685 70.3162 294.875 70.9926C295.065 71.669 295.16 72.3568 295.16 73.056V73.7856H286.496ZM292.972 72.144C292.956 71.688 292.884 71.27 292.755 70.89C292.626 70.51 292.432 70.1794 292.174 69.8982C291.915 69.617 291.592 69.3966 291.205 69.237C290.817 69.0774 290.365 68.9976 289.848 68.9976C289.346 68.9976 288.887 69.0926 288.469 69.2826C288.051 69.4726 287.697 69.7196 287.408 70.0236C287.12 70.3276 286.895 70.6658 286.736 71.0382C286.576 71.4106 286.496 71.7792 286.496 72.144H292.972Z" fill="black"/>
</g>
</svg>
